<svg xmlns="http://www.w3.org/2000/svg" viewBox="0 0 100 100" fill="none">
  <defs>
    <radialGradient id="quadGradTop" cx="50%" cy="20%" r="75%">
      <stop offset="0%" stop-color="#FF5500" />
      <stop offset="55%" stop-color="#E61000" />
      <stop offset="100%" stop-color="#990000" />
    </radialGradient>
    <radialGradient id="quadGradBottom" cx="50%" cy="80%" r="75%">
      <stop offset="0%" stop-color="#FF5500" />
      <stop offset="55%" stop-color="#E61000" />
      <stop offset="100%" stop-color="#990000" />
    </radialGradient>
    <radialGradient id="quadGradLeft" cx="20%" cy="50%" r="75%">
      <stop offset="0%" stop-color="#FF5500" />
      <stop offset="55%" stop-color="#E61000" />
      <stop offset="100%" stop-color="#990000" />
    </radialGradient>
    <radialGradient id="quadGradRight" cx="80%" cy="50%" r="75%">
      <stop offset="0%" stop-color="#FF5500" />
      <stop offset="55%" stop-color="#E61000" />
      <stop offset="100%" stop-color="#990000" />
    </radialGradient>
    <linearGradient id="quadSpecular" x1="0" y1="0" x2="100" y2="100" gradientUnits="userSpaceOnUse">
      <stop offset="0%" stop-color="#ffffff" stop-opacity="0.35" />
      <stop offset="35%" stop-color="#ffffff" stop-opacity="0.05" />
      <stop offset="100%" stop-color="#000000" stop-opacity="0.3" />
    </linearGradient>
  </defs>
  <path d="M 10 4 H 90 L 85 9 Q 50 45 15 9 L 10 4 Z" fill="url(#quadGradTop)"/>
  <path d="M 10 4 H 90 L 85 9 Q 50 45 15 9 L 10 4 Z" fill="url(#quadSpecular)"/>
  <path d="M 10 96 H 90 L 85 91 Q 50 55 15 91 L 10 96 Z" fill="url(#quadGradBottom)"/>
  <path d="M 4 10 V 90 L 9 85 Q 45 50 9 15 L 4 10 Z" fill="url(#quadGradLeft)"/>
  <path d="M 4 10 V 90 L 9 85 Q 45 50 9 15 L 4 10 Z" fill="url(#quadSpecular)"/>
  <path d="M 96 10 V 90 L 91 85 Q 55 50 91 15 L 96 10 Z" fill="url(#quadGradRight)"/>
</svg>
